<svg version="1.2" xmlns="http://www.w3.org/2000/svg" viewBox="0 0 2151 669" width="965" height="300"><style>.a{fill:#003893}.b{fill:#f00}.c{fill:#d42d25}.d{fill:#fff}</style><path fill-rule="evenodd" class="a" d="m912.7 396h-130.8q-21 0-33.2-12.2-12.3-12.2-12.3-33.2v-252.4q5.4-1 17.1-2.4 11.8-2 22.5-2 11.2 0 19.5 2 8.8 1.4 14.7 5.8 5.8 4.4 8.8 12.2 2.9 7.8 2.9 20.5v192.9h111.8q3.4 5.4 6.3 14.6 3 8.8 3 18.6 0 19.5-8.3 27.8-8.3 7.8-22 7.8zm152.8-200.6v198.7q-5.3 1-16.1 2.9-10.2 1.5-21 1.5-10.7 0-19.5-1.5-8.3-1.4-14.2-5.8-5.8-4.4-9.2-11.8-3-7.8-3-20v-198.7q5.4-1 15.6-2.4 10.8-2 21.5-2 10.8 0 19.1 1.5 8.8 1.4 14.6 5.8 5.9 4.4 8.8 12.2 3.4 7.4 3.4 19.6zm163.1-45.4q29.3 0 54.2 7.8 25.4 7.3 43.4 22.9 18.1 15.6 28.4 39.6 10.2 23.4 10.2 56.1 0 31.3-8.8 54.7-8.8 23.4-24.9 39.6-16.1 15.6-39 23.4-22.5 7.8-50.3 7.8-21 0-39.1-6.3l0.4 49.6c0 0 0.7 12.7-2.8 21.7-4.6 11.7-8.4 9.8-20.4 13.3-7.9 2.2-14.7 1.4-22.4 1.3-9.7-0.1-6-0.5-11.9-1.5q-8.3-1.4-14.2-5.8-5.8-4.4-8.8-11.8-2.9-7.8-2.9-20v-234.3q0-13.2 5.4-21.5 5.8-8.3 15.6-15.2 15.1-9.7 37.6-15.6 22.5-5.8 50.3-5.8zm1 186.5q50.3 0 50.3-60.1 0-31.2-12.7-46.4-12.2-15.1-35.7-15.1-9.2 0-16.6 2.4-7.3 2-12.7 4.9v107.4q5.9 3 12.7 4.9 6.9 2 14.7 2zm258.4-141.1v198.7q-5.3 1-16.1 2.9-10.2 1.5-21 1.5-10.7 0-19.5-1.5-8.3-1.4-14.2-5.8-5.8-4.4-9.2-11.8-3-7.8-3-20v-198.7q5.4-1 15.7-2.4 10.7-2 21.4-2 10.8 0 19.1 1.5 8.8 1.4 14.6 5.8 5.9 4.4 8.8 12.2 3.4 7.4 3.4 19.6z"/><path fill-rule="evenodd" class="b" d="m1012.2 90.3c-0.7 2.7-1.4 5-1.6 5-0.1 0.1-2.2-1-4.5-2.4-2.4-1.4-4.4-2.5-4.5-2.5-0.4 0-0.4 0.2 0.5 5.6l0.7 4.8h-0.7c-0.4 0-2.7-0.3-5.2-0.7-2.4-0.3-4.6-0.6-4.7-0.5-0.2 0 0.9 2.1 2.4 4.5 1.4 2.4 2.6 4.5 2.5 4.7 0 0.2-2.3 0.9-5 1.6-2.7 0.7-4.9 1.4-4.9 1.5 0 0.1 1.9 1.6 4.1 3.2 4.7 3.6 4.6 3.2 2 5-2.4 1.8-2 1.8-4.5 0.1-8-5.2-15.1-13.3-19.6-22.4l-1.7-3.5 0.2 3.3c1.1 22.6 18.7 42.9 41.3 47.7 31.7 6.7 61.6-16 63.7-48.4 0.2-2.5-0.1-2.7-1-0.4-3.8 8.8-11.6 18-20.3 23.8l-2.1 1.4-1.7-1.1c-3.4-2.4-3.6-1.8 1.4-5.4 2.2-1.7 4.1-3.2 4.1-3.3 0-0.2-2.2-0.8-4.8-1.5-2.6-0.7-4.9-1.3-5-1.4-0.2-0.1 0.9-2.3 2.3-4.8 1.5-2.5 2.6-4.5 2.5-4.6-0.1 0-2.6 0.3-5.4 0.7-4 0.5-5.1 0.6-5.1 0.3 0-0.2 0.3-2.6 0.7-5.2 0.3-2.6 0.6-4.8 0.5-4.9-0.1-0.1-2.2 1-4.7 2.5l-4.5 2.7-1.3-5c-0.7-2.8-1.4-5.1-1.5-5.2-0.2-0.2-3 3.3-5.4 6.7l-1.2 1.7-2.1-2.8c-1.2-1.5-2.6-3.4-3.2-4.3-1.4-2-1.4-2.1-2.7 3.5z"/><path fill-rule="evenodd" class="b" d="m1442 67c-0.9 2.2-2.5 5.9-3.5 8.2-1 2.4-1.9 4.3-2 4.3-0.1 0-3.4-2.4-7.4-5.4-3.9-3-7.2-5.4-7.2-5.3 0 0 0.4 4.1 1 9 0.7 4.9 1.1 8.9 1 9-0.1 0.1-4.1-0.4-9-1-4.9-0.6-8.9-1.1-9-1 0 0 2.4 3.3 5.4 7.3 3.2 4.2 5.4 7.3 5.2 7.5-0.1 0.1-1.7 0.8-3.5 1.5-9.6 4-13.7 5.9-12.8 5.9 0.4 0 16.3 6.8 16.4 7 0.1 0.1-2.3 3.4-5.3 7.3-3 3.9-5.3 7.1-5.3 7.2 0.1 0.1 4.1-0.4 9-1 4.8-0.5 8.8-1 8.9-0.9 0.1 0.1-0.3 4.2-1 9.1-0.6 4.8-1 8.9-1 8.9 0 0.1 3.4-2.4 7.4-5.4 4-3.1 7.3-5.5 7.4-5.5 0 0.1 0.2 0.7 0.5 1.3 3 7.3 6.6 15.4 6.7 15.2 0.1-0.1 1.8-3.8 3.7-8.3 1.9-4.4 3.5-8.1 3.6-8.1 0.1 0 3.3 2.5 7.2 5.4 3.9 2.9 7.2 5.3 7.2 5.2 0.1 0-0.3-4.1-0.9-9-0.6-4.9-1.1-8.9-1.1-9 0 0 4.1 0.5 9 1.1 4.9 0.6 8.9 1 9 1 0.1-0.1-2.3-3.4-5.3-7.3-3-4-5.4-7.2-5.4-7.3 0.2-0.1 15.5-6.6 16.1-6.8 0.9-0.3 0.7-0.5-1.6-1.4-4.4-1.9-14.4-6.1-14.4-6.2-0.1-0.1 2.3-3.3 5.2-7.1 2.9-3.9 5.3-7.2 5.4-7.4 0.1-0.2-1.9 0-8.9 0.9-5 0.6-9.1 1.1-9.1 1.1 0 0 0.5-4.1 1.1-9 0.6-4.9 1-9 0.9-9 0-0.1-3.3 2.3-7.2 5.2-3.9 2.9-7.2 5.3-7.3 5.3-0.1 0-6.9-15.8-6.9-16.2 0-0.9-0.7 0.3-2.2 3.7z"/><path class="c" d="m1297 585.2v-115.8h41.1v112q0 5.5 2.7 7.6 2.8 1.5 10.7 1.5h17q7.9 0 10.1-1.5 2.7-2.1 2.7-7.6v-35.6h41.1v39.4q0 13.7-10.1 20.5-9.5 6.4-31.7 6.4h-41.8q-22.2 0-32.2-6.4-9.6-6.8-9.6-20.5zm-29.1-148.8v-22.3h268.6v22.3h-130.8l2.3-2.9q7.3 0.3 11.1 2.5 4 2.1 4 8.5v40.9q0 10-4.9 15.4-4.8 4.9-17.5 6.1l-8.6-4.8h83v22.2h-146.1v-22.2h38.6q9 0 11.4-1.9 3-2.1 3-8.1v-45.7q0-6.4-3-8.2-2.3-1.8-11.4-1.8zm195.2 175.7v-182h40.8v182zm-178.1-26.9v-115.8h41.1v112q0 5.5 2.6 7.6 2.9 1.5 10.8 1.5h17q7.9 0 10-1.5 2.8-2.1 2.8-7.6v-35.6h41.1v39.4q0 13.7-10.2 20.5-9.4 6.4-31.6 6.4h-41.8q-22.2 0-32.2-6.4-9.6-6.8-9.6-20.5zm-29.1-148.8v-22.3h268.6v22.3h-130.8l2.3-2.9q7.3 0.3 11.1 2.5 4 2.1 4 8.5v40.9q0 10-4.9 15.4-4.8 4.9-17.5 6.1l-8.6-4.8h83v22.2h-146.1v-22.2h38.6q9 0 11.4-1.9 3-2.1 3-8.1v-45.7q0-6.4-3-8.2-2.3-1.8-11.4-1.8zm195.2 175.7v-182h40.7v182zm107.9 0v-182h40.8v182zm-32.7-175.7v-22.3h106.2v22.3zm20.7 175.7v-182h40.7v182zm-32.7-175.7v-22.3h106.2v22.3zm136.8 148.8v-115.8h41.1v112q0 5.5 2.6 7.6 2.8 1.5 10.7 1.5h17.1q7.8 0 10-1.5 2.8-2.1 2.8-7.6v-35.6h41.1v39.4q0 13.7-10.2 20.5-9.4 6.4-31.7 6.4h-41.7q-22.3 0-32.3-6.4-9.5-6.8-9.5-20.5zm-29.2-148.8v-22.3h182.6v22.3h-44.8l2.3-2.9q7.4 0.3 11.1 2.5 4.1 2.1 4.1 8.5v52.4q0 14.1-11.4 21-10.8 6.4-34.3 6.4h-48.5v-22.2h38.7q9 0 11.4-1.9 3-2.1 3-8.1v-45.7q0-6.4-3-8.2-2.3-1.8-11.4-1.8zm17.1 148.8v-115.8h41.1v112q0 5.5 2.6 7.6 2.9 1.5 10.7 1.5h17.1q7.9 0 10-1.5 2.8-2.1 2.8-7.6v-35.6h41.1v39.4q0 13.7-10.2 20.5-9.4 6.4-31.6 6.4h-41.8q-22.2 0-32.2-6.4-9.6-6.8-9.6-20.5zm-29.1-148.8v-22.3h182.5v22.3h-44.8l2.3-2.9q7.4 0.3 11.2 2.5 4 2.1 4 8.5v52.4q0 14.1-11.3 21-10.9 6.4-34.4 6.4h-48.5v-22.2h38.7q9 0 11.4-1.9 3-2.1 3-8.1v-45.7q0-6.4-3-8.2-2.3-1.8-11.4-1.8zm256.8-84.3h179.3q19.6 0 29.8 6.8 10.3 6.2 10.3 20.4v21.3h-41.1v-16.1q0-6.6-2.9-8.2-2.3-2-11.7-2h-148.1q-8.9 0-11.9 2-2.7 1.6-2.7 8.2v29.6h32.7v22.3h-32.7v175.7h-41.1v-175.7h-32.7v-22.3h32.7v-34.8q0-14.2 10.1-20.4 10.5-6.8 30-6.8zm-12 0h179.3q19.6 0 29.8 6.8 10.3 6.2 10.3 20.4v21.3h-41.1v-16.1q0-6.6-2.9-8.2-2.3-2-11.7-2h-148.1q-8.9 0-11.9 2-2.7 1.6-2.7 8.2v29.6h32.7v22.3h-32.7v175.7h-41.1v-175.7h-32.7v-22.3h32.7v-34.8q0-14.2 10.1-20.4 10.5-6.8 30-6.8zm195.6 84.3l-0.1-22.3h73.9v22.3zm0 175.7v-187.2h41.2v187.2zm-87.7-199.6h16.9q20.8 0 30.5 6.7 10.4 6.4 10.4 20.1v52.8q0 13.7-10 20.7-9.6 6.8-31.9 6.8h-18.1v36.2q0 5.7 2.7 7.6 2.8 1.8 10.6 1.8h61.1q9.1 0 12.1-2.1 3.4-2.7 3.4-8.7l5.3 17.3q0 8.5-5.1 12.2-4.8 3.5-16.4 3.5h-71q-22.2 0-33.3-6.6-10.5-6.9-10.5-21.6v-61.8h46.6q8.2 0 10.4-1.7 3-1.9 3-7.4v-44.4q0-5.8-3-7.3-2.2-1.8-10.4-1.8h-2.5q-7.8 0-10.8 1.8-2.5 1.5-2.5 7.3v13.6h-27.3v-18.2q0-13.7 9.3-20.1 9.6-6.7 30.5-6.7zm75.6 23.9v-22.3h73.9v22.3zm0 175.7v-187.2h41.1v187.2zm-87.7-199.6h16.9q20.8 0 30.5 6.7 10.4 6.4 10.4 20.1v52.8q0 13.7-9.9 20.7-9.7 6.8-31.9 6.8h-18.2v36.2q0 5.7 2.7 7.6 2.8 1.8 10.7 1.8h61q9.1 0 12.1-2.1 3.4-2.7 3.4-8.7l5.3 17.3q0 8.5-5.1 12.2-4.8 3.5-16.4 3.5h-70.9q-22.3 0-33.3-6.6-10.6-6.9-10.6-21.6v-61.8h46.6q8.3 0 10.4-1.7 3-1.9 3-7.4v-44.4q0-5.8-3-7.3-2.1-1.8-10.4-1.8h-2.4q-7.9 0-10.9 1.8-2.5 1.5-2.5 7.3v13.6h-27.3v-18.2q0-13.7 9.3-20.1 9.7-6.7 30.5-6.7z"/><path class="d" d="m432.4 445.4c-9.5-0.8-18.1-3-26.1-6.8-4.7-2.2-13.5-7.6-16.9-10.3l-2-1.7-0.1-125.1c-0.1-68.8 0-132.6 0.2-141.7l0.3-16.6h1.9c1.8 0 2.1 0.2 6.2 5.4 26 32.6 51.5 50.1 86.7 59.4 7.6 2.1 14.9 3.5 31.6 6.5 30.8 5.3 44.3 9.1 59.8 16.7 19.5 9.6 37.7 24.6 52.3 43.3 5.6 7.1 8.6 11.8 8.6 13.7 0 1.6-0.1 1.6-1.8 1.6-1.5 0-2.7-0.6-6.2-3-14.8-10.4-29.4-15.4-44.5-15.4-16.9 0-32.3 4.3-70.4 19.8-6.4 2.7-14.5 5.9-17.9 7.2-3.5 1.3-6.3 2.4-6.4 2.5-0.2 0.1 20.7 11.9 31.6 17.8 34.6 18.9 52.8 32 71.8 52 11.9 12.4 24.6 28.6 31.5 40.2 2.2 3.6 2.8 5.1 2.8 6.6 0 1.9-0.1 2-1.5 2-0.8 0-2.4-0.5-3.4-1.1-6.2-3.7-15.3-7.4-23.1-9.3-4.8-1.2-6.8-1.5-13.7-1.6-17.9-0.6-33.1 3.6-71.4 19.6-28 11.6-40.6 15.6-54.7 17.5-6.7 0.9-18.8 1.3-25.2 0.8zm24-14.1c13.7-2.4 23.1-5.5 50.9-16.9 26.5-10.9 36.7-14.6 48.7-17.4 9.2-2.2 15.3-2.9 26.2-2.9 9.1 0 9.7 0 9.3-0.8-1.1-1.9-12.9-13.5-19.4-19-17.7-15.2-29.9-23-68.5-44.3-18.3-10.1-28.4-16.3-39-23.8-7.5-5.4-8.6-6.4-8.4-8.5l0.2-1.5 7.2-1.7c12.1-2.9 20.7-5.9 45.2-15.7 38.9-15.7 50.2-18.9 70.4-19.5l9.9-0.3-4-2.7c-18.4-12.5-38-19.2-74.8-25.7-28.9-5.1-42.2-8.8-57.4-15.8-18.6-8.6-34.9-20.9-49.8-37.8l-1.9-2.1v122.8 122.7l3.4 2.1c8.1 4.9 16.4 7.9 26.8 9.5 6 0.8 17.7 0.6 25-0.7z"/><path class="d" d="m445.2 396.2c-4-9.3-3.1-8.7-8-5.4-6.4 4.4-8.3 5.3-10.4 5.2-2.4-0.2-2.5-0.6-1.3-9.7 0.9-8.2 1.1-7.8-3-8.3-2.2-0.3-10.6-1.8-13.7-2.4-0.9-0.2-1.1-0.6-1.1-2.1 0-1.7 0.3-2.1 4.8-6.1 2.7-2.3 4.8-4.3 4.6-4.4-3.2-2.4-9.8-7.6-11.8-9.4-2.2-2-2.6-2.7-2.6-4.1v-1.7l3.4-0.3c1.8-0.2 4.8-0.3 6.7-0.3 1.8 0 3.4-0.2 3.6-0.5 0.2-0.2-1.4-3.3-3.5-6.9-3.1-5.5-3.7-6.9-3.7-8.7v-2.2h1.7c1 0 4.8 1 8.4 2.3 3.6 1.3 6.6 2.3 6.6 2.3 0.1-0.1-0.2-2.4-0.5-5.1-0.4-2.7-0.7-6.3-0.7-7.9v-2.9h2.1c2 0 2.6 0.3 8.2 4.6l6.1 4.7 3.1-7.1 3.2-7.2 2.3-0.1c2.3-0.1 2.3-0.1 3.2 1.9 0.4 1.1 1.7 4 2.9 6.4l2 4.3 4.5-4.1c6.9-6.3 8.1-7.2 10.1-7.2h1.7v3.1c0 1.6-0.2 5.1-0.5 7.7-0.3 2.7-0.5 4.9-0.4 5 0.2 0.1 3.3-1.1 7-2.6 4.2-1.8 7.4-2.8 8.6-2.8h1.8v2.2c0 1.8-0.6 3.2-4 8.9-2.2 3.8-4 6.9-4 6.9 0 0.1 3.2 0.3 7.2 0.5l7.3 0.3v1.8c0 1.7-0.4 2.1-4.4 5.5-2.4 2.1-5.6 4.7-7.1 5.8-1.5 1.2-3 2.2-3.2 2.4-0.3 0.2 0.4 1 1.5 1.9 1.1 0.9 3.3 2.8 5.1 4.4 2.7 2.4 3.1 3 3.1 4.5v1.8l-2.9 0.5c-6.4 1.3-15.8 3.3-15.9 3.5-0.2 0.2 0.2 2.9 0.7 6.1 0.6 3.2 1.1 7 1.1 8.5v2.6h-2.1c-1.6 0-3.5-0.7-8.2-3.1-4.2-2-6.2-2.8-6.2-2.4 0 0.4-1.5 4-3.3 8.1l-3.3 7.3h-2.1-2.1l-2.6-6zm7.4-12.9l2.1-5.1h1.9c1.1 0.1 3.4 0.9 6.3 2.3 4.1 2 4.6 2.1 4.4 1.3-0.6-2.6-1.2-7.3-1.2-9.5 0-2.2 0.1-2.5 1.1-2.8 0.6-0.1 3.7-0.7 6.8-1.3 3.1-0.6 5.8-1.3 5.9-1.4 0.1-0.1-0.8-0.9-1.9-1.8-4.7-3.7-5.4-4.5-5.4-6.2 0-1.5 0.4-2 5.3-5.8l5.3-4.1-2.4-0.4c-1.4-0.1-3.7-0.3-5.1-0.3l-2.6-0.1v-2.2c0-1.8 0.5-3 2.5-6.2 1.3-2.2 2.3-4.1 2.3-4.1-0.1-0.1-1.5 0.4-3.1 1.1-1.8 0.8-4.2 1.4-5.9 1.5l-3 0.2 0.3-5.8 0.4-5.8-4.1 3.9c-3.9 3.5-4.3 3.8-6.2 3.8h-2.1l-2.1-4.7c-1.2-2.6-2.3-4.5-2.5-4.3-0.2 0.2-1.3 2.6-2.5 5.4l-2.1 5h-2.1c-1.8 0-2.6-0.4-6.5-3.4-2.5-1.9-4.3-2.9-4.1-2.4 0.3 0.4 0.5 3.4 0.7 6.4l0.3 5.5h-1.8c-0.9 0-3.7-0.6-6-1.4-2.4-0.7-4.3-1.3-4.3-1.1 0 0.1 1.1 2.1 2.5 4.5 1.8 3.3 2.4 5 2.4 6.4v1.9l-3 0.2c-1.8 0.2-4 0.4-5.1 0.5l-1.9 0.1 5.2 4c4.7 3.7 5.1 4.1 5.3 5.8 0.1 1.8 0 2-3.4 5-4.1 3.6-4.6 3.1 3.7 4.4 6.7 1.2 6.3 0.8 6.3 4.2 0 1.6-0.2 4.1-0.5 5.6-0.3 1.6-0.4 2.9-0.3 3 0.1 0.1 2.1-1.1 4.4-2.6 3.6-2.5 4.5-2.9 6.5-2.9h2.2l2.2 4.7c1.1 2.6 2.2 4.6 2.4 4.4 0.2-0.2 1.3-2.6 2.5-5.4z"/><path class="d" d="m441.8 284.6c-11.7-1.2-22.1-9-28.6-21-3.8-7.2-6.2-16.7-5.9-23.6l0.1-3.5 2.1-0.1 2.2-0.2 2.4 4.9c1.3 2.7 3.6 6.6 5 8.6l2.6 3.8 2.4-0.2c1.3-0.1 2.4-0.3 2.5-0.4 0.1-0.1-0.1-0.8-0.4-1.7-0.3-0.8-0.5-2.3-0.5-3.2v-1.9h3.7 3.7l0.2-2.9 0.1-3h2.5c1.4 0 2.9 0.2 3.5 0.4 0.8 0.3 1.1 0 2-2.1 0.9-2.3 1.1-2.5 2.8-2.6 1.5-0.1 2.2 0.1 3.6 1.3l1.8 1.4 1.8-1.9c1.6-1.7 2.1-1.9 3.7-1.8 1.5 0.1 1.9 0.4 2.6 1.8 0.5 0.9 1 1.8 1.1 2.1 0.1 0.3 0.9 0 1.9-0.6 1-0.6 2.6-1 3.6-1 1.9 0 2.3 0.6 2.3 3.8v1.7l3.7-0.3 3.8-0.2v1.6c0 1-0.4 2.6-0.8 3.7l-0.7 1.9h2.5 2.5l2.3-3.4c1.3-1.9 3.7-5.8 5.3-8.7l3-5.3 2 0.1 2.1 0.1v4c-0.2 7.9-2.5 16.1-7 24.7-7.1 13.7-19 22.2-33.2 23.7-4.7 0.6-5.2 0.6-10.3 0zm11.2-6.5c7.1-1.6 12.3-4.5 17.9-10 4.9-4.8 8.3-9.3 4.8-6.3-1.7 1.4-2.5 1.7-4.1 1.7-3.2 0-4.5-1.1-4.5-3.6 0-1.1 0.4-2.7 0.8-3.4 0.7-1.4 0.7-1.4-0.9-1.6-1.6-0.1-1.6-0.1-1.8-2.5l-0.1-2.5-1.9-0.1c-1.7-0.2-1.8-0.3-2-2-0.1-1.5-0.3-1.7-1-1.4-0.4 0.2-1.9 0.4-3.2 0.6-2 0.1-2.3 0-2.6-0.8-0.4-1.2-0.9-1.3-1.8-0.3-0.7 0.8-4.7 1-5.2 0.2-0.6-0.9-1.3-0.5-2 1.2-0.6 1.3-1 1.6-2.2 1.6-0.8 0-2.1-0.2-2.8-0.4-1.2-0.5-1.3-0.4-1.3 1.1 0 2.7-0.4 3.1-2.7 3.1h-2.1l0.1 2.7c0 2.6-0.1 2.7-1.4 2.8-1.1 0.2-1.3 0.4-1 1 0.6 1.4 0.7 6.1 0.2 7.1-0.9 1.6-4.7 1.4-7.7-0.4l-2.4-1.5 2.4 2.9c4.6 5.5 11.4 9.6 18.2 11 4.3 0.9 5.5 0.9 10.3-0.2z"/><path fill-rule="evenodd" class="a" d="m294 25h390v368c0 138.1-111.9 250-250 250h-390v-368c0-138.1 111.9-250 250-250z"/><path fill-rule="evenodd" class="b" d="m102.9 548.7h408.2c9.8 0 17.7 7.5 17.7 16.7 0 9.3-7.9 16.7-17.7 16.7h-408.2c-9.8 0-17.7-7.4-17.7-16.7 0-9.2 7.9-16.7 17.7-16.7z"/><path class="d" d="m200.6 311.7h123.8v-59.5h-207q-14.3 0-20-7.2-5.7-7.8-5.7-22.3 0-5.8 1.7-14.5 1.7-8.7 4.6-13.1h352.5q13.7 0 19.4 7.3 6.2 7.2 6.2 21.3 0 6.3-2.2 15.5-1.7 8.7-4.6 13h-51.3v243.3q-4.6 1.4-18.3 2.9-13.7 1.4-25.1 1.4-25.1 0-37.6-6.3-12.6-6.7-12.6-28.5v-92.4h-76.4q-20 0-20 18.4v23.7q-9.7 4.4-18.8 6.8-9.1 1.9-18.8 1.9-11.4 0-22.3-3.4-10.8-3.8-18.8-10.6-8-7.3-13.1-17.4-4.6-10.2-4.6-23.7 0-26.1 18.3-41.1 18.8-15.5 50.7-15.5zm-15 0h123.8v-59.5h-207.1q-14.2 0-19.9-7.2-5.7-7.8-5.7-22.3 0-5.8 1.7-14.5 1.7-8.7 4.5-13.1h352.5q13.7 0 19.4 7.3 6.3 7.2 6.3 21.3 0 6.3-2.3 15.5-1.7 8.7-4.5 13h-51.4v243.3q-4.5 1.4-18.2 2.9-13.7 1.4-25.1 1.4-25.1 0-37.7-6.3-12.5-6.7-12.5-28.5v-92.4h-76.4q-20 0-20 18.4v23.7q-9.7 4.4-18.8 6.8-9.2 1.9-18.9 1.9-11.4 0-22.2-3.4-10.8-3.8-18.8-10.6-8-7.3-13.1-17.4-4.6-10.2-4.6-23.7 0-26.1 18.2-41.1 18.9-15.5 50.8-15.5zm236.4-107.9h-77.5q-9.2-14.5-24.6-27.5-15.4-13.1-33-23.2-17.7-10.7-36.6-17.9-18.2-7.8-33-11.2-0.6-2.4-0.6-4.8 0-2.4 0-4.8 0-9.7 2.8-18.4 3.5-9.2 9.7-16 6.9-7.2 16.6-11.1 9.7-4.3 23.4-4.3 23.9 0 46.7 12.5 23.4 12.6 43.4 32.4 20.5 19.9 36.5 45 16.5 24.7 26.2 49.3zm-15 0h-77.6q-9.1-14.5-24.5-27.5-15.4-13.1-33.1-23.2-17.7-10.7-36.5-17.9-18.2-7.8-33.1-11.2-0.5-2.4-0.5-4.8 0-2.4 0-4.8 0-9.7 2.8-18.4 3.4-9.2 9.7-16 6.8-7.2 16.5-11.1 9.7-4.3 23.4-4.3 24 0 46.8 12.5 23.4 12.6 43.4 32.4 20.5 19.9 36.5 45 16.5 24.7 26.2 49.3z"/><path fill-rule="evenodd" class="a" d="m541 108.3v371.6h-123c-9.9 0-18-8-18-18v-353.6z"/><path class="d" d="m432.4 448.4c-9.5-0.8-18.1-3-26.1-6.8-4.7-2.2-13.5-7.6-16.9-10.3l-2-1.7-0.1-125.1c-0.1-68.8 0-132.6 0.2-141.7l0.3-16.6h1.9c1.8 0 2.1 0.2 6.2 5.4 26 32.6 51.5 50.1 86.7 59.4 7.6 2.1 14.9 3.5 31.6 6.5 30.8 5.3 44.3 9.1 59.8 16.7 19.5 9.6 37.7 24.6 52.3 43.3 5.6 7.1 8.6 11.8 8.6 13.7 0 1.6-0.1 1.6-1.8 1.6-1.5 0-2.7-0.6-6.2-3-14.8-10.4-29.4-15.4-44.5-15.4-16.9 0-32.3 4.3-70.4 19.8-6.4 2.7-14.5 5.9-17.9 7.2-3.5 1.3-6.3 2.4-6.4 2.5-0.2 0.1 20.7 11.9 31.6 17.8 34.6 18.9 52.8 32 71.8 52 11.9 12.4 24.6 28.6 31.5 40.2 2.2 3.6 2.8 5.1 2.8 6.6 0 1.9-0.1 2-1.5 2-0.8 0-2.4-0.5-3.4-1.1-6.2-3.7-15.3-7.4-23.1-9.3-4.8-1.2-6.8-1.5-13.7-1.6-17.9-0.6-33.1 3.6-71.4 19.6-28 11.6-40.6 15.6-54.7 17.5-6.7 0.9-18.8 1.3-25.2 0.8zm24-14.1c13.7-2.4 23.1-5.5 50.9-16.9 26.5-10.9 36.7-14.6 48.7-17.4 9.2-2.2 15.3-2.9 26.2-2.9 9.1 0 9.7 0 9.3-0.8-1.1-1.9-12.9-13.5-19.4-19-17.7-15.2-29.9-23-68.5-44.3-18.3-10.1-28.4-16.3-39-23.8-7.5-5.4-8.6-6.4-8.4-8.5l0.2-1.5 7.2-1.7c12.1-2.9 20.7-5.9 45.2-15.7 38.9-15.7 50.2-18.9 70.4-19.5l9.9-0.3-4-2.7c-18.4-12.5-38-19.2-74.8-25.7-28.9-5.1-42.2-8.8-57.4-15.8-18.6-8.6-34.9-20.9-49.8-37.8l-1.9-2.1v122.8 122.7l3.4 2.1c8.1 4.9 16.4 7.9 26.8 9.5 6 0.8 17.7 0.6 25-0.7z"/><path class="d" d="m445.2 396.2c-4-9.3-3.1-8.7-8-5.4-6.4 4.4-8.3 5.3-10.4 5.2-2.4-0.2-2.5-0.6-1.3-9.7 0.9-8.2 1.1-7.8-3-8.3-2.2-0.3-10.6-1.8-13.7-2.4-0.9-0.2-1.1-0.6-1.1-2.1 0-1.7 0.3-2.1 4.8-6.1 2.7-2.3 4.8-4.3 4.6-4.4-3.2-2.4-9.8-7.6-11.8-9.4-2.2-2-2.6-2.7-2.6-4.1v-1.7l3.4-0.3c1.8-0.2 4.8-0.3 6.7-0.3 1.8 0 3.4-0.2 3.6-0.5 0.2-0.2-1.4-3.3-3.5-6.9-3.1-5.5-3.7-6.9-3.7-8.7v-2.2h1.7c1 0 4.8 1 8.4 2.3 3.6 1.3 6.6 2.3 6.6 2.3 0.1-0.1-0.2-2.4-0.5-5.1-0.4-2.7-0.7-6.3-0.7-7.9v-2.9h2.1c2 0 2.6 0.3 8.2 4.6l6.1 4.7 3.1-7.1 3.2-7.2 2.3-0.1c2.3-0.1 2.3-0.1 3.2 1.9 0.4 1.1 1.7 4 2.9 6.4l2 4.3 4.5-4.1c6.9-6.3 8.1-7.2 10.1-7.2h1.7v3.1c0 1.6-0.2 5.1-0.5 7.7-0.3 2.7-0.5 4.9-0.4 5 0.2 0.1 3.3-1.1 7-2.6 4.2-1.8 7.4-2.8 8.6-2.8h1.8v2.2c0 1.8-0.6 3.2-4 8.9-2.2 3.8-4 6.9-4 6.9 0 0.1 3.2 0.3 7.2 0.5l7.3 0.3v1.8c0 1.7-0.4 2.1-4.4 5.5-2.4 2.1-5.6 4.7-7.1 5.8-1.5 1.2-3 2.2-3.2 2.4-0.3 0.2 0.4 1 1.5 1.9 1.1 0.9 3.3 2.8 5.1 4.4 2.7 2.4 3.1 3 3.1 4.5v1.8l-2.9 0.5c-6.4 1.3-15.8 3.3-15.9 3.5-0.2 0.2 0.2 2.9 0.7 6.1 0.6 3.2 1.1 7 1.1 8.5v2.6h-2.1c-1.6 0-3.5-0.7-8.2-3.1-4.2-2-6.2-2.8-6.2-2.4 0 0.4-1.5 4-3.3 8.1l-3.3 7.3h-2.1-2.1l-2.6-6zm7.4-12.9l2.1-5.1h1.9c1.1 0.1 3.4 0.9 6.3 2.3 4.1 2 4.6 2.1 4.4 1.3-0.6-2.6-1.2-7.3-1.2-9.5 0-2.2 0.1-2.5 1.1-2.8 0.6-0.1 3.7-0.7 6.8-1.3 3.1-0.6 5.8-1.3 5.9-1.4 0.1-0.1-0.8-0.9-1.9-1.8-4.7-3.7-5.4-4.5-5.4-6.2 0-1.5 0.4-2 5.3-5.8l5.3-4.1-2.4-0.4c-1.4-0.1-3.7-0.3-5.1-0.3l-2.6-0.1v-2.2c0-1.8 0.5-3 2.5-6.2 1.3-2.2 2.3-4.1 2.3-4.1-0.1-0.1-1.5 0.4-3.1 1.1-1.8 0.8-4.2 1.4-5.9 1.5l-3 0.2 0.3-5.8 0.4-5.8-4.1 3.9c-3.9 3.5-4.3 3.8-6.2 3.8h-2.1l-2.1-4.7c-1.2-2.6-2.3-4.5-2.5-4.3-0.2 0.2-1.3 2.6-2.5 5.4l-2.1 5h-2.1c-1.8 0-2.6-0.4-6.5-3.4-2.5-1.9-4.3-2.9-4.1-2.4 0.3 0.4 0.5 3.4 0.7 6.4l0.3 5.5h-1.8c-0.9 0-3.7-0.6-6-1.4-2.4-0.7-4.3-1.3-4.3-1.1 0 0.1 1.1 2.1 2.5 4.5 1.8 3.3 2.4 5 2.4 6.4v1.9l-3 0.2c-1.8 0.2-4 0.4-5.1 0.5l-1.9 0.1 5.2 4c4.7 3.7 5.1 4.1 5.3 5.8 0.1 1.8 0 2-3.4 5-4.1 3.6-4.6 3.1 3.7 4.4 6.7 1.2 6.3 0.8 6.3 4.2 0 1.6-0.2 4.1-0.5 5.6-0.3 1.6-0.4 2.9-0.3 3 0.1 0.1 2.1-1.1 4.4-2.6 3.6-2.5 4.5-2.9 6.5-2.9h2.2l2.2 4.7c1.1 2.6 2.2 4.6 2.4 4.4 0.2-0.2 1.3-2.6 2.5-5.4z"/><path class="d" d="m441.8 284.6c-11.7-1.2-22.1-9-28.6-21-3.8-7.2-6.2-16.7-5.9-23.6l0.1-3.5 2.1-0.1 2.2-0.2 2.4 4.9c1.3 2.7 3.6 6.6 5 8.6l2.6 3.8 2.4-0.2c1.3-0.1 2.4-0.3 2.5-0.4 0.1-0.1-0.1-0.8-0.4-1.7-0.3-0.8-0.5-2.3-0.5-3.2v-1.9h3.7 3.7l0.2-2.9 0.1-3h2.5c1.4 0 2.9 0.2 3.5 0.4 0.8 0.3 1.1 0 2-2.1 0.9-2.3 1.1-2.5 2.8-2.6 1.5-0.1 2.2 0.1 3.6 1.3l1.8 1.4 1.8-1.9c1.6-1.7 2.1-1.9 3.7-1.8 1.5 0.1 1.9 0.4 2.6 1.8 0.5 0.9 1 1.8 1.1 2.1 0.1 0.3 0.9 0 1.9-0.6 1-0.6 2.6-1 3.6-1 1.9 0 2.3 0.6 2.3 3.8v1.7l3.7-0.3 3.8-0.2v1.6c0 1-0.4 2.6-0.8 3.7l-0.7 1.9h2.5 2.5l2.3-3.4c1.3-1.9 3.7-5.8 5.3-8.7l3-5.3 2 0.1 2.1 0.1v4c-0.2 7.9-2.5 16.1-7 24.7-7.1 13.7-19 22.2-33.2 23.7-4.7 0.6-5.2 0.6-10.3 0zm11.2-6.5c7.1-1.6 12.3-4.5 17.9-10 4.9-4.8 8.3-9.3 4.8-6.3-1.7 1.4-2.5 1.7-4.1 1.7-3.2 0-4.5-1.1-4.5-3.6 0-1.1 0.4-2.7 0.8-3.4 0.7-1.4 0.7-1.4-0.9-1.6-1.6-0.1-1.6-0.1-1.8-2.5l-0.1-2.5-1.9-0.1c-1.7-0.2-1.8-0.3-2-2-0.1-1.5-0.3-1.7-1-1.4-0.4 0.2-1.9 0.4-3.2 0.6-2 0.1-2.3 0-2.6-0.8-0.4-1.2-0.9-1.3-1.8-0.3-0.7 0.8-4.7 1-5.2 0.2-0.6-0.9-1.3-0.5-2 1.2-0.6 1.3-1 1.6-2.2 1.6-0.8 0-2.1-0.2-2.8-0.4-1.2-0.5-1.3-0.4-1.3 1.1 0 2.7-0.4 3.1-2.7 3.1h-2.1l0.1 2.7c0 2.6-0.1 2.7-1.4 2.8-1.1 0.2-1.3 0.4-1 1 0.6 1.4 0.7 6.1 0.2 7.1-0.9 1.6-4.7 1.4-7.7-0.4l-2.4-1.5 2.4 2.9c4.6 5.5 11.4 9.6 18.2 11 4.3 0.9 5.5 0.9 10.3-0.2z"/><path fill-rule="evenodd" d="m723 574h530c10.5 0 19 8.5 19 19v6h-568v-6c0-10.5 8.5-19 19-19z"/><path fill-rule="evenodd" d="m743 539h106c11 0 20 9 20 20v11h-146v-11c0-11 9-20 20-20z"/><path fill-rule="evenodd" d="m936 531h106c11 0 20 9 20 20v19h-146v-19c0-11 9-20 20-20z"/><path fill-rule="evenodd" d="m1129 525h106c11 0 20 9 20 20v25h-146v-25c0-11 9-20 20-20z"/></svg>